<svg width="512" height="512" viewBox="0 0 100 100" xmlns="http://www.w3.org/2000/svg"><defs><clipPath id="lid"><path d="M3.6,50 C25.6,21.9 74.4,21.9 96.4,50 C74.4,78.1 25.6,78.1 3.6,50 Z" /></clipPath><clipPath id="ir"><path d="M21.9,50 a28.1,28.1 0 1,0 56.1,0 a28.1,28.1 0 1,0 -56.1,0 Z M39,50 a11,11 0 1,0 22,0 a11,11 0 1,0 -22,0 Z" clip-rule="evenodd" /></clipPath><radialGradient id="iris" cx="50%" cy="50%" r="50%"><stop offset="14%" stop-color="#00c5fe" /><stop offset="82%" stop-color="#0055ff" /><stop offset="100%" stop-color="#004fb9" /></radialGradient></defs><g clip-path="url(#lid)"><path d="M3.6,50 C25.6,21.9 74.4,21.9 96.4,50 C74.4,78.1 25.6,78.1 3.6,50 Z M21.9,50 a28.1,28.1 0 1,0 56.1,0 a28.1,28.1 0 1,0 -56.1,0 Z" fill-rule="evenodd" fill="#f4f4f6" /><path d="M21.9,50 a28.1,28.1 0 1,0 56.1,0 a28.1,28.1 0 1,0 -56.1,0 Z M39,50 a11,11 0 1,0 22,0 a11,11 0 1,0 -22,0 Z" fill-rule="evenodd" fill="url(#iris)" /><g clip-path="url(#ir)"><g transform="translate(50 50) scale(0.9)"><path d="M32.0 0.0L31.3 -0.6L29.4 -0.9L26.5 -0.6L22.8 0.5L18.6 2.6L14.3 5.6L10.4 9.4L7.1 13.7L4.5 18.2L2.9 22.6L2.2 26.4L2.1 29.4L2.6 31.2L3.3 31.8L3.9 31.1L4.0 29.2L3.4 26.3L1.9 22.7L-0.6 18.7L-4.1 14.8L-8.2 11.3L-12.9 8.5L-17.6 6.4L-22.1 5.2L-26.0 4.9L-29.0 5.2L-30.8 5.9L-31.3 6.7L-30.5 7.1L-28.6 7.0L-25.8 6.1L-22.4 4.2L-18.7 1.3L-15.2 -2.5L-12.1 -7.0L-9.8 -11.9L-8.2 -16.9L-7.5 -21.5L-7.6 -25.4L-8.2 -28.3L-9.1 -30.0L-9.9 -30.4L-10.3 -29.6L-10.0 -27.7L-8.8 -25.0L-6.5 -21.8L-3.3 -18.5L0.9 -15.4L5.7 -12.8L10.8 -10.9L15.9 -9.9L20.6 -9.7L24.5 -10.2L27.3 -11.1L28.9 -12.2L29.2 -13.0L28.4 -13.3L26.5 -12.8L23.9 -11.3L21.0 -8.8L18.0 -5.2L15.4 -0.7L13.3 4.3L12.0 9.6L11.5 14.8L11.8 19.4L12.7 23.3L13.9 26.0L15.1 27.5L16.0 27.7L16.2 26.8L15.5 25.0L13.8 22.6L10.9 20.0L7.0 17.4L2.3 15.2L-2.9 13.7L-8.3 13.0L-13.5 13.0L-18.1 13.8L-21.8 15.1L-24.4 16.6L-25.7 17.9L-25.9 18.8L-25.0 18.9L-23.3 18.1L-21.1 16.1L-18.7 12.9L-16.6 8.8L-14.9 3.9L-13.9 -1.5L-13.8 -6.9L-14.4 -12.1L-15.6 -16.6L-17.3 -20.1L-19.0 -22.5L-20.5 -23.7L-21.4 -23.8L-21.4 -22.9L-20.4 -21.3L-18.2 -19.3L-14.8 -17.3L-10.5 -15.5L-5.4 -14.4L0.0 -14.0L5.4 -14.4L10.5 -15.5L14.8 -17.3L18.2 -19.3L20.4 -21.3L21.4 -22.9L21.4 -23.8L20.5 -23.7L19.0 -22.5L17.3 -20.1L15.6 -16.6L14.4 -12.1L13.8 -6.9L13.9 -1.5L14.9 3.9L16.6 8.8L18.7 12.9L21.1 16.1L23.3 18.1L25.0 18.9L25.9 18.8L25.7 17.9L24.4 16.6L21.8 15.1L18.1 13.8L13.5 13.0L8.3 13.0L2.9 13.7L-2.3 15.2L-7.0 17.4L-10.9 20.0L-13.8 22.6L-15.5 25.0L-16.2 26.8L-16.0 27.7L-15.1 27.5L-13.9 26.0L-12.7 23.3L-11.8 19.4L-11.5 14.8L-12.0 9.6L-13.3 4.3L-15.4 -0.7L-18.0 -5.2L-21.0 -8.8L-23.9 -11.3L-26.5 -12.8L-28.4 -13.3L-29.2 -13.0L-28.9 -12.2L-27.3 -11.1L-24.5 -10.2L-20.6 -9.7L-15.9 -9.9L-10.8 -10.9L-5.7 -12.8L-0.9 -15.4L3.3 -18.5L6.5 -21.8L8.8 -25.0L10.0 -27.7L10.3 -29.6L9.9 -30.4L9.1 -30.0L8.2 -28.3L7.6 -25.4L7.5 -21.5L8.2 -16.9L9.8 -11.9L12.1 -7.0L15.2 -2.5L18.7 1.3L22.4 4.2L25.8 6.1L28.6 7.0L30.5 7.1L31.3 6.7L30.8 5.9L29.0 5.2L26.0 4.9L22.1 5.2L17.6 6.4L12.9 8.5L8.2 11.3L4.1 14.8L0.6 18.7L-1.9 22.7L-3.4 26.3L-4.0 29.2L-3.9 31.1L-3.3 31.8L-2.6 31.2L-2.1 29.4L-2.2 26.4L-2.9 22.6L-4.5 18.2L-7.1 13.7L-10.4 9.4L-14.3 5.6L-18.6 2.6L-22.8 0.5L-26.5 -0.6L-29.4 -0.9L-31.3 -0.6L-32.0 0.0L-31.3 0.6L-29.4 0.9L-26.5 0.6L-22.8 -0.5L-18.6 -2.6L-14.3 -5.6L-10.4 -9.4L-7.1 -13.7L-4.5 -18.2L-2.9 -22.6L-2.2 -26.4L-2.1 -29.4L-2.6 -31.2L-3.3 -31.8L-3.9 -31.1L-4.0 -29.2L-3.4 -26.3L-1.9 -22.7L0.6 -18.7L4.1 -14.8L8.2 -11.3L12.9 -8.5L17.6 -6.4L22.1 -5.2L26.0 -4.9L29.0 -5.2L30.8 -5.9L31.3 -6.7L30.5 -7.1L28.6 -7.0L25.8 -6.1L22.4 -4.2L18.7 -1.3L15.2 2.5L12.1 7.0L9.8 11.9L8.2 16.9L7.5 21.5L7.6 25.4L8.2 28.3L9.1 30.0L9.9 30.4L10.3 29.6L10.0 27.7L8.8 25.0L6.5 21.8L3.3 18.5L-0.9 15.4L-5.7 12.8L-10.8 10.9L-15.9 9.9L-20.6 9.7L-24.5 10.2L-27.3 11.1L-28.9 12.2L-29.2 13.0L-28.4 13.3L-26.5 12.8L-23.9 11.3L-21.0 8.8L-18.0 5.2L-15.4 0.7L-13.3 -4.3L-12.0 -9.6L-11.5 -14.8L-11.8 -19.4L-12.7 -23.3L-13.9 -26.0L-15.1 -27.5L-16.0 -27.7L-16.2 -26.8L-15.5 -25.0L-13.8 -22.6L-10.9 -20.0L-7.0 -17.4L-2.3 -15.2L2.9 -13.7L8.3 -13.0L13.5 -13.0L18.1 -13.8L21.8 -15.1L24.4 -16.6L25.7 -17.9L25.9 -18.8L25.0 -18.9L23.3 -18.1L21.1 -16.1L18.7 -12.9L16.6 -8.8L14.9 -3.9L13.9 1.5L13.8 6.9L14.4 12.1L15.6 16.6L17.3 20.1L19.0 22.5L20.5 23.7L21.4 23.8L21.4 22.9L20.4 21.3L18.2 19.3L14.8 17.3L10.5 15.5L5.4 14.4L-0.0 14.0L-5.4 14.4L-10.5 15.5L-14.8 17.3L-18.2 19.3L-20.4 21.3L-21.4 22.9L-21.4 23.8L-20.5 23.7L-19.0 22.5L-17.3 20.1L-15.6 16.6L-14.4 12.1L-13.8 6.9L-13.9 1.5L-14.9 -3.9L-16.6 -8.8L-18.7 -12.9L-21.1 -16.1L-23.3 -18.1L-25.0 -18.9L-25.9 -18.8L-25.7 -17.9L-24.4 -16.6L-21.8 -15.1L-18.1 -13.8L-13.5 -13.0L-8.3 -13.0L-2.9 -13.7L2.3 -15.2L7.0 -17.4L10.9 -20.0L13.8 -22.6L15.5 -25.0L16.2 -26.8L16.0 -27.7L15.1 -27.5L13.9 -26.0L12.7 -23.3L11.8 -19.4L11.5 -14.8L12.0 -9.6L13.3 -4.3L15.4 0.7L18.0 5.2L21.0 8.8L23.9 11.3L26.5 12.8L28.4 13.3L29.2 13.0L28.9 12.2L27.3 11.1L24.5 10.2L20.6 9.7L15.9 9.9L10.8 10.9L5.7 12.8L0.9 15.4L-3.3 18.5L-6.5 21.8L-8.8 25.0L-10.0 27.7L-10.3 29.6L-9.9 30.4L-9.1 30.0L-8.2 28.3L-7.6 25.4L-7.5 21.5L-8.2 16.9L-9.8 11.9L-12.1 7.0L-15.2 2.5L-18.7 -1.3L-22.4 -4.2L-25.8 -6.1L-28.6 -7.0L-30.5 -7.1L-31.3 -6.7L-30.8 -5.9L-29.0 -5.2L-26.0 -4.9L-22.1 -5.2L-17.6 -6.4L-12.9 -8.5L-8.2 -11.3L-4.1 -14.8L-0.6 -18.7L1.9 -22.7L3.4 -26.3L4.0 -29.2L3.9 -31.1L3.3 -31.8L2.6 -31.2L2.1 -29.4L2.2 -26.4L2.9 -22.6L4.5 -18.2L7.1 -13.7L10.4 -9.4L14.3 -5.6L18.6 -2.6L22.8 -0.5L26.5 0.6L29.4 0.9L31.3 0.6" fill="none" stroke="#80aaff" stroke-width="0.7" vector-effect="non-scaling-stroke" opacity="0.6" /></g></g></g></svg>
